<?xml version="1.0" encoding="UTF-8"?>
<svg version="1.1" xmlns="http://www.w3.org/2000/svg" width="1920" height="1080">
<path d="M0 0 C633.6 0 1267.2 0 1920 0 C1920 356.4 1920 712.8 1920 1080 C1286.4 1080 652.8 1080 0 1080 C0 723.6 0 367.2 0 0 Z " fill="#000000" transform="translate(0,0)"/>
<path d="M0 0 C7.0081069 0.16644832 14.0116077 0.12202329 21.02097389 0.07453644 C33.94851587 -0.00723887 46.87011768 0.07262591 59.79649426 0.25073877 C72.57352125 0.42653777 85.34795858 0.53251131 98.12622907 0.54685464 C98.92521184 0.54780928 99.72419462 0.54876392 100.54738899 0.54974749 C103.79145389 0.5533954 107.03551873 0.55653096 110.27958475 0.55899863 C139.74280436 0.58148862 169.20243261 0.77082602 198.66407468 1.06724611 C226.44649999 1.34666587 254.22695987 1.52337299 282.01075437 1.57994142 C283.29761545 1.58260059 283.29761545 1.58260059 284.61047372 1.58531349 C288.93185664 1.5942282 293.25323985 1.60299451 297.57462312 1.61173843 C298.8538634 1.6143349 298.8538634 1.6143349 300.15894691 1.61698383 C301.87873988 1.62046156 303.59853291 1.6239062 305.318326 1.62731765 C332.69673622 1.6822444 360.07478236 1.81836135 387.45279437 1.97234523 C395.4570815 2.01712775 403.46135678 2.05817717 411.46570518 2.09039917 C428.27653732 2.15882721 445.08635549 2.25255167 461.89634893 2.43896769 C468.84447778 2.51534741 475.79186257 2.57697105 482.74041631 2.5938498 C489.09839958 2.60934529 495.45458103 2.67459922 501.81179881 2.77539963 C504.11290157 2.80396135 506.41428436 2.81579934 508.71555534 2.80935423 C525.84653207 2.77588314 525.84653207 2.77588314 531.37646164 6.34293499 C533.71161682 8.86078311 535.43291889 11.28748039 537.1425903 14.25694337 C537.99308423 15.44319682 538.85130054 16.62399945 539.72120168 17.79609552 C540.77753395 19.35415005 540.77753395 19.35415005 541.85520627 20.94368043 C547.49244396 28.59414856 554.59563178 37.83155936 564.45423295 39.69354024 C575.8890715 40.44272785 587.56694488 37.12056885 598.62709983 34.5949119 C677.05897792 16.71085139 766.44387254 14.94227183 852.44656794 64.41611109 C889.96075544 88.07379603 923.617903 116.78272413 955.68823703 147.28836605 C957.19886311 148.72517128 958.71115472 150.16022745 960.22510977 151.59352454 C1047.83850849 234.54451626 1090.72123584 316.33369933 1096.34899594 452.21197572 C1097.47993463 500.46821568 1095.05621151 548.76179548 1091.96412351 596.90806642 C1091.89611948 597.97847524 1091.82811544 599.04888406 1091.75805068 600.15172951 C1088.89980752 644.72814986 1083.25415254 688.84147046 1078.1425903 733.25694337 C951.4225903 733.25694337 824.7025903 733.25694337 694.1425903 733.25694337 C693.4825903 730.94694337 692.8225903 728.63694337 692.1425903 726.25694337 C683.70667486 711.33185118 666.72340678 693.12688531 650.1001084 688.12493911 C635.12846784 684.66985101 619.42522665 685.26050832 604.1626816 685.52153721 C597.96003369 685.60985587 591.75914309 685.49074103 585.55712604 685.39730101 C572.11769051 685.20169467 558.68437216 685.20834879 545.24420645 685.30605878 C533.48164881 685.39117634 521.72134283 685.40885674 509.95856549 685.36169877 C509.1735645 685.35865866 508.38856351 685.35561855 507.57977461 685.35248631 C504.39191404 685.34011135 501.20405452 685.32750625 498.01619643 685.31450738 C468.20408181 685.19437197 438.39586619 685.28441871 408.58426347 685.46952393 C382.19270197 685.63204193 355.80784303 685.60263726 329.41651608 685.41270509 C299.65687861 685.1991492 269.9010132 685.11089324 240.14067139 685.2174485 C236.95853065 685.22849944 233.77638896 685.23923362 230.59424664 685.24982133 C229.81092066 685.25253327 229.02759467 685.25524521 228.22053153 685.25803933 C216.47658247 685.29650423 204.73553998 685.24150976 192.99205091 685.13885179 C179.61317537 685.02237295 166.24213023 685.04460774 152.86404697 685.24141593 C146.05324999 685.33820363 139.25731792 685.37424993 132.44663693 685.24263826 C106.54826581 684.78100364 86.28030598 685.2565108 66.80170598 703.94740513 C52.95096569 716.83639091 52.95096569 716.83639091 45.1425903 733.25694337 C-24.28282168 754.75164388 -103.57149709 761.25742356 -169.98470424 726.87237182 C-218.46787207 701.2208322 -260.89121107 665.84702878 -300.72536669 628.49797991 C-302.22952863 627.08778895 -303.73525214 625.67926177 -305.24253498 624.27240708 C-393.7528756 541.65168012 -436.53118383 460.92559003 -441.59786449 335.3926052 C-442.68471267 302.42877153 -441.95585097 269.51123431 -440.5449097 236.56944337 C-440.49289326 235.35466581 -440.44087683 234.13988825 -440.38728414 232.88829925 C-437.58124459 168.41653799 -431.96983262 104.27096216 -423.8574097 40.25694337 C-422.8045484 40.27370473 -422.8045484 40.27370473 -421.73041717 40.29080471 C-379.97705115 40.95099175 -338.22510079 41.42479609 -296.46708887 41.66204763 C-291.43499669 41.69079643 -286.40291481 41.7210767 -281.37083743 41.7523047 C-279.86836704 41.76159007 -279.86836704 41.76159007 -278.33554371 41.77106303 C-262.19082563 41.87447709 -246.05015088 42.10146484 -229.90752966 42.37548583 C-213.29945628 42.65460582 -196.6940664 42.79777876 -180.08364586 42.81907364 C-169.86007248 42.83633753 -159.64865892 42.95509825 -149.42822703 43.21092427 C-142.38531829 43.37697268 -135.34908126 43.40897783 -128.30456847 43.34332179 C-124.25566164 43.30930996 -120.22802876 43.32681617 -116.18249057 43.5065104 C-99.05721718 44.35345056 -99.05721718 44.35345056 -83.8506488 37.61992998 C-79.53754028 33.4284396 -75.69658514 28.81032013 -71.81839091 24.22007575 C-50.98325608 -0.32580577 -30.9785375 -0.76954169 0 0 Z " fill="#003434" transform="translate(632.8574096967932,170.74305662862025)"/>
<path d="M0 0 C7.0081069 0.16644832 14.0116077 0.12202329 21.02097389 0.07453644 C33.94851587 -0.00723887 46.87011768 0.07262591 59.79649426 0.25073877 C72.57352125 0.42653777 85.34795858 0.53251131 98.12622907 0.54685464 C98.92521184 0.54780928 99.72419462 0.54876392 100.54738899 0.54974749 C103.79145389 0.5533954 107.03551873 0.55653096 110.27958475 0.55899863 C139.74280436 0.58148862 169.20243261 0.77082602 198.66407468 1.06724611 C226.44649999 1.34666587 254.22695987 1.52337299 282.01075437 1.57994142 C283.29761545 1.58260059 283.29761545 1.58260059 284.61047372 1.58531349 C288.93185664 1.5942282 293.25323985 1.60299451 297.57462312 1.61173843 C298.8538634 1.6143349 298.8538634 1.6143349 300.15894691 1.61698383 C301.87873988 1.62046156 303.59853291 1.6239062 305.318326 1.62731765 C332.69673622 1.6822444 360.07478236 1.81836135 387.45279437 1.97234523 C395.4570815 2.01712775 403.46135678 2.05817717 411.46570518 2.09039917 C428.27653732 2.15882721 445.08635549 2.25255167 461.89634893 2.43896769 C468.84447778 2.51534741 475.79186257 2.57697105 482.74041631 2.5938498 C489.09839958 2.60934529 495.45458103 2.67459922 501.81179881 2.77539963 C504.11290157 2.80396135 506.41428436 2.81579934 508.71555534 2.80935423 C525.84653207 2.77588314 525.84653207 2.77588314 531.37646164 6.34293499 C533.71161682 8.86078311 535.43291889 11.28748039 537.1425903 14.25694337 C537.99308423 15.44319682 538.85130054 16.62399945 539.72120168 17.79609552 C540.77753395 19.35415005 540.77753395 19.35415005 541.85520627 20.94368043 C547.49244396 28.59414856 554.59563178 37.83155936 564.45423295 39.69354024 C575.8890715 40.44272785 587.56694488 37.12056885 598.62709983 34.5949119 C677.05897792 16.71085139 766.44387254 14.94227183 852.44656794 64.41611109 C889.96075544 88.07379603 923.617903 116.78272413 955.68823703 147.28836605 C957.19886311 148.72517128 958.71115472 150.16022745 960.22510977 151.59352454 C1047.83850849 234.54451626 1090.72123584 316.33369933 1096.34899594 452.21197572 C1097.47993463 500.46821568 1095.05621151 548.76179548 1091.96412351 596.90806642 C1091.89611948 597.97847524 1091.82811544 599.04888406 1091.75805068 600.15172951 C1088.89980752 644.72814986 1083.25415254 688.84147046 1078.1425903 733.25694337 C951.4225903 733.25694337 824.7025903 733.25694337 694.1425903 733.25694337 C693.4825903 730.94694337 692.8225903 728.63694337 692.1425903 726.25694337 C683.70667486 711.33185118 666.72340678 693.12688531 650.1001084 688.12493911 C635.12846784 684.66985101 619.42522665 685.26050832 604.1626816 685.52153721 C597.96003369 685.60985587 591.75914309 685.49074103 585.55712604 685.39730101 C572.11769051 685.20169467 558.68437216 685.20834879 545.24420645 685.30605878 C533.48164881 685.39117634 521.72134283 685.40885674 509.95856549 685.36169877 C509.1735645 685.35865866 508.38856351 685.35561855 507.57977461 685.35248631 C504.39191404 685.34011135 501.20405452 685.32750625 498.01619643 685.31450738 C468.20408181 685.19437197 438.39586619 685.28441871 408.58426347 685.46952393 C382.19270197 685.63204193 355.80784303 685.60263726 329.41651608 685.41270509 C299.65687861 685.1991492 269.9010132 685.11089324 240.14067139 685.2174485 C236.95853065 685.22849944 233.77638896 685.23923362 230.59424664 685.24982133 C229.81092066 685.25253327 229.02759467 685.25524521 228.22053153 685.25803933 C216.47658247 685.29650423 204.73553998 685.24150976 192.99205091 685.13885179 C179.61317537 685.02237295 166.24213023 685.04460774 152.86404697 685.24141593 C146.05324999 685.33820363 139.25731792 685.37424993 132.44663693 685.24263826 C106.54826581 684.78100364 86.28030598 685.2565108 66.80170598 703.94740513 C52.95096569 716.83639091 52.95096569 716.83639091 45.1425903 733.25694337 C-24.28282168 754.75164388 -103.57149709 761.25742356 -169.98470424 726.87237182 C-218.46787207 701.2208322 -260.89121107 665.84702878 -300.72536669 628.49797991 C-302.22952863 627.08778895 -303.73525214 625.67926177 -305.24253498 624.27240708 C-393.7528756 541.65168012 -436.53118383 460.92559003 -441.59786449 335.3926052 C-442.68471267 302.42877153 -441.95585097 269.51123431 -440.5449097 236.56944337 C-440.49289326 235.35466581 -440.44087683 234.13988825 -440.38728414 232.88829925 C-437.58124459 168.41653799 -431.96983262 104.27096216 -423.8574097 40.25694337 C-422.8045484 40.27370473 -422.8045484 40.27370473 -421.73041717 40.29080471 C-379.97705115 40.95099175 -338.22510079 41.42479609 -296.46708887 41.66204763 C-291.43499669 41.69079643 -286.40291481 41.7210767 -281.37083743 41.7523047 C-279.86836704 41.76159007 -279.86836704 41.76159007 -278.33554371 41.77106303 C-262.19082563 41.87447709 -246.05015088 42.10146484 -229.90752966 42.37548583 C-213.29945628 42.65460582 -196.6940664 42.79777876 -180.08364586 42.81907364 C-169.86007248 42.83633753 -159.64865892 42.95509825 -149.42822703 43.21092427 C-142.38531829 43.37697268 -135.34908126 43.40897783 -128.30456847 43.34332179 C-124.25566164 43.30930996 -120.22802876 43.32681617 -116.18249057 43.5065104 C-99.05721718 44.35345056 -99.05721718 44.35345056 -83.8506488 37.61992998 C-79.53754028 33.4284396 -75.69658514 28.81032013 -71.81839091 24.22007575 C-50.98325608 -0.32580577 -30.9785375 -0.76954169 0 0 Z M-407.8574097 56.25694337 C-415.85273401 117.85485182 -421.25139711 179.57263023 -423.9824097 241.63194337 C-424.05805565 243.34749094 -424.05805565 243.34749094 -424.13522981 245.09769603 C-429.08150855 359.32428199 -424.96041624 461.96227444 -333.14584373 571.12056699 C-319.528227 585.88734227 -305.05906581 599.76817994 -290.3574097 613.44444337 C-289.63394314 614.11971474 -288.91047658 614.7949861 -288.16508679 615.49072024 C-223.13701536 676.15517794 -147.13425796 739.58661523 -53.10391055 736.50171789 C-50.20773604 736.37840428 -47.31420118 736.23084265 -44.4199097 736.06944337 C-43.47166198 736.0180066 -42.52341426 735.96656983 -41.54643176 735.91357436 C-28.7514988 735.16712021 -16.22856042 733.60005819 -3.67202375 731.02494254 C-2.08342782 730.69983618 -0.4926777 730.38503476 1.10028603 730.08205333 C2.22563251 729.86661506 2.22563251 729.86661506 3.37371327 729.64682451 C4.02156628 729.52496758 4.66941928 729.40311065 5.33690419 729.27756109 C21.15865831 725.63292792 32.73407288 719.81353086 43.23530175 707.16863981 C72.54660003 672.11477812 72.54660003 672.11477812 97.17217727 669.27872702 C107.80024686 668.45106681 118.40542523 668.38876431 129.05765996 668.62334101 C136.07812821 668.76869743 143.08981688 668.65536471 150.11002158 668.54069505 C163.85307305 668.32430604 177.58730877 668.34799523 191.33095886 668.48017136 C203.35636909 668.59518788 215.3786104 668.62735848 227.40448834 668.5807425 C228.20798164 668.5777482 229.01147493 668.57475389 229.83931651 668.57166884 C233.10248181 668.5594411 236.36564562 668.54689182 239.62880768 668.53382643 C270.12198718 668.41322548 300.60965195 668.53982268 331.10187193 668.78146474 C358.08575575 668.99378721 385.06141467 668.9896347 412.04542233 668.80186525 C442.49173865 668.5907921 472.93357782 668.51379124 503.38047471 668.65049067 C506.63642342 668.66476974 509.89237331 668.67875038 513.14832379 668.69261995 C514.35051728 668.6979227 514.35051728 668.6979227 515.5769975 668.70333259 C527.58488181 668.75407674 539.5896459 668.70587953 551.59715344 668.60770478 C565.27609641 668.49650535 578.94594043 668.53614738 592.62359897 668.76431942 C599.58455836 668.87681684 606.53096209 668.92871155 613.49187924 668.79081407 C639.57915486 668.33162445 660.68569882 669.12156165 680.22390558 687.78874684 C700.23270204 707.43716684 700.23270204 707.43716684 705.1425903 717.25694337 C822.9525903 717.25694337 940.7625903 717.25694337 1062.1425903 717.25694337 C1069.82436266 652.91801237 1069.82436266 652.91801237 1075.24537351 588.43003907 C1075.31319162 587.36794623 1075.38100974 586.30585338 1075.45088295 585.21157591 C1076.46409646 569.25565636 1077.33585997 553.29458105 1078.10198053 537.32495901 C1078.21218241 535.03386951 1078.32385759 532.74285039 1078.43702241 530.45190534 C1084.09928725 415.82257721 1080.3424049 318.23506495 1000.64569165 229.74682107 C980.30588072 207.35223233 958.39233051 186.69559474 935.77661433 166.62942364 C933.44844532 164.56354701 931.12370861 162.49385957 928.79934098 160.42370763 C889.58419793 125.5423364 848.93091873 92.72192842 806.41788634 61.94892451 C804.76608268 60.72059176 803.16645168 59.42111259 801.60287245 58.08227852 C799.12585679 56.24452843 798.13231727 55.74390268 795.13355519 55.64463964 C794.366354 55.61015739 793.5991528 55.57567515 792.80870308 55.54014799 C791.97713507 55.5224682 791.14556706 55.50478842 790.28880002 55.48657289 C789.39606794 55.45281586 788.50333587 55.41905883 787.58355131 55.38427886 C784.59035362 55.27697698 781.59713777 55.1983308 778.60303952 55.12046876 C776.45531471 55.0511869 774.30762527 54.98080097 772.15997006 54.90939393 C752.42984303 54.28426881 732.68874167 53.95847942 712.95078542 53.70049443 C698.40104167 53.50645039 683.86894543 53.17407212 669.32716622 52.65304634 C659.05764486 52.29782521 648.79284535 52.11441194 638.51745882 52.04845675 C632.40362386 52.00444215 626.31217527 51.89133198 620.20523908 51.58828988 C619.02544189 51.53795872 617.84564471 51.48762755 616.6300961 51.43577119 C614.47723591 51.33988531 612.32510214 51.22262992 610.17525758 51.0737358 C606.62260768 50.92912147 603.14106504 51.06835916 599.59913327 51.31187501 C598.68634215 51.35929416 597.77355103 51.4067133 596.83309958 51.45556939 C584.76087493 52.2720988 575.05587363 54.03332914 566.61460435 63.19070895 C563.4131523 66.98482937 560.27428232 70.82431191 557.16653927 74.69548536 C544.51026673 90.02156467 531.70739552 101.89957305 511.16586365 104.25341031 C500.55630715 105.07083308 489.97004676 105.14701299 479.33657306 104.91865609 C472.33226135 104.77749183 465.33688488 104.89484327 458.33298734 105.01344083 C444.62132216 105.23748998 430.91837178 105.22125555 417.20591781 105.0960476 C405.20660591 104.987046 393.21045813 104.96001408 381.21075131 105.01102128 C380.40893462 105.01430584 379.60711792 105.0175904 378.78100374 105.02097449 C375.52460783 105.03436622 372.2682134 105.04805789 369.01182085 105.06224433 C338.58101264 105.1932275 308.15569823 105.07543165 277.72574035 104.84307776 C250.80201537 104.63905758 223.88703977 104.65731963 196.96339108 104.8629004 C166.5821841 105.09411739 136.20581504 105.18393185 105.82384994 105.05157306 C102.57404413 105.03778618 99.32423707 105.02433378 96.07442929 105.01102128 C95.27448497 105.00762096 94.47454064 105.00422063 93.65035558 105.00071726 C81.67032219 104.95219356 69.69383159 105.0082573 57.71429135 105.11764207 C44.064066 105.24167511 30.4237697 105.20768997 16.77475419 104.97657008 C9.82918056 104.86277869 2.89969906 104.81233034 -4.0456631 104.96148362 C-48.49624594 105.81223219 -48.49624594 105.81223219 -64.37497684 90.88474853 C-70.64614516 84.79968019 -76.40662985 78.27897628 -82.15996746 71.7092354 C-95.27235393 56.57106353 -95.27235393 56.57106353 -113.83511661 51.08599916 C-118.63354412 50.7963324 -123.34849071 50.95712631 -128.14110122 51.26612165 C-131.92625457 51.45871798 -135.71016137 51.3885324 -139.49885867 51.35632386 C-146.00710474 51.33416947 -152.49629704 51.46446498 -158.99973414 51.71055093 C-168.39804619 52.06593797 -177.78751357 52.17255144 -187.19181134 52.22603457 C-202.45800483 52.31927622 -217.71410527 52.60291379 -232.97484134 53.01304689 C-247.76470525 53.41010224 -262.55179088 53.7132677 -277.34593509 53.89488282 C-278.72242286 53.91182849 -278.72242286 53.91182849 -280.12671847 53.92911649 C-284.73211034 53.9852487 -289.33752132 54.03958439 -293.9429451 54.09302833 C-331.92154815 54.53606204 -369.88868139 55.29089204 -407.8574097 56.25694337 Z " fill="#00F7FD" transform="translate(632.8574096967932,170.74305662862025)"/>
<path d="M0 0 C38.88490526 -0.98936193 77.76788179 -1.74444967 116.66287689 -2.19580917 C121.27909659 -2.24957432 125.89529166 -2.30523164 130.51147461 -2.36206055 C131.43027645 -2.3733399 132.3490783 -2.38461924 133.29572263 -2.39624039 C148.07568653 -2.58217011 162.84828441 -2.92047446 177.62391166 -3.31757023 C192.84379318 -3.72312017 208.05988557 -3.95921893 223.28494567 -4.04580528 C232.64647024 -4.10415811 241.98718713 -4.2864175 251.34227403 -4.64040808 C257.80310439 -4.87206608 264.25358861 -4.93551668 270.71824584 -4.88055923 C274.42971215 -4.85356149 278.10573116 -4.88698251 281.81041145 -5.12583542 C292.91078215 -5.8057689 304.50034264 -5.61530634 313.32074699 2.00498343 C318.58969255 7.23056087 323.42576108 12.85825747 328.31248876 18.43841577 C342.58653448 34.68833218 354.73635687 46.51994761 377.49756954 48.26841605 C386.94630587 48.77303259 396.34673974 48.86485303 405.80602485 48.66171266 C412.810334 48.52054812 419.80570798 48.63789994 426.80960296 48.75649746 C440.52126815 48.98054661 454.22421852 48.96431218 467.93667249 48.83910423 C479.9359844 48.73010262 491.93213218 48.70307071 503.93183899 48.75407791 C505.13456404 48.75900475 505.13456404 48.75900475 506.36158656 48.76403112 C509.61798248 48.77742285 512.8743769 48.79111451 516.13076946 48.80530096 C546.56157767 48.93628413 576.98689207 48.81848828 607.41684995 48.58613439 C634.34057493 48.38211421 661.25555053 48.40037625 688.17919922 48.60595703 C718.56040621 48.83717402 748.93677527 48.92698848 779.31874037 48.79462969 C782.56854617 48.78084281 785.81835323 48.76739041 789.06816101 48.75407791 C789.86810534 48.75067758 790.66804966 48.74727726 791.49223473 48.74377389 C803.47226812 48.69525019 815.44875871 48.75131392 827.42829895 48.8606987 C841.07852431 48.98473174 854.7188206 48.9507466 868.36783612 48.71962671 C875.31340974 48.60583532 882.24289123 48.55538702 889.1882534 48.70454025 C913.37826409 49.16751438 934.41275913 49.31696863 952.72004143 31.82535915 C957.99922362 26.66650676 962.81146847 21.21275207 967.43612909 15.45885646 C977.66984082 2.86852648 985.08870695 -2.91269899 1001.53185666 -4.6881606 C1003.46343292 -4.83043483 1005.39602552 -4.95995984 1007.32958984 -5.07202148 C1008.05986314 -5.12661411 1008.79013643 -5.18120673 1009.54253922 -5.23745368 C1013.34133946 -5.49878581 1017.04642757 -5.42153744 1020.84310913 -5.17955017 C1023.16803703 -5.08874054 1025.49304751 -5.00002593 1027.81812668 -4.91317558 C1028.98888355 -4.86101662 1030.15964042 -4.80885767 1031.36587477 -4.75511813 C1037.51485198 -4.5258835 1043.66424565 -4.54074101 1049.81680298 -4.52296448 C1060.10443028 -4.46003285 1070.37798446 -4.23930898 1080.66015625 -3.90307617 C1093.82498775 -3.47322633 1106.98009859 -3.30260936 1120.15114403 -3.21350002 C1131.56003894 -3.13539975 1142.96688918 -2.95259801 1154.37410402 -2.74650311 C1158.00623618 -2.68389028 1161.63840884 -2.63313585 1165.27073288 -2.58306694 C1170.9751248 -2.49667684 1176.67442949 -2.34507339 1182.37589073 -2.14390755 C1184.45658528 -2.07890634 1186.53799581 -2.03326673 1188.61956596 -2.00917053 C1206.64462104 -1.775067 1206.64462104 -1.775067 1213.31391907 5.00405884 C1214.33243052 6.09973499 1215.34785293 7.19828818 1216.36068726 8.29921436 C1220.73011876 12.97486929 1225.87244137 16.52967621 1231.05427551 20.24909973 C1233.19792672 21.80617421 1235.34081134 23.36426551 1237.4830265 24.92331123 C1238.04055252 25.32818652 1238.59807853 25.73306181 1239.17249928 26.15020605 C1275.48184246 52.54147904 1309.98931571 81.05571671 1343.56962502 110.82488215 C1345.80732432 112.80791336 1348.04829128 114.78720776 1350.28931332 116.76648235 C1426.13934189 183.89392632 1479.2070558 249.5306267 1485.8297863 353.63361931 C1488.24137229 394.85463049 1487.58551347 435.90388419 1485.625 477.125 C1485.51831336 479.42595241 1485.4117234 481.72690931 1485.30522966 484.02787066 C1482.53100063 543.25956103 1477.45200593 602.17671168 1470 661 C1424.63954808 661.18305619 1379.2791352 661.32404941 1333.91838681 661.40852264 C1328.56481261 661.41852845 1323.21123913 661.42888302 1317.85766602 661.43945312 C1316.25894606 661.44260085 1316.25894606 661.44260085 1314.62792874 661.44581217 C1297.36368576 661.48063573 1280.09965559 661.54371943 1262.83553892 661.61722237 C1245.12483404 661.69199856 1227.41424072 661.7364626 1209.70338446 661.75270796 C1198.7721084 661.76369253 1187.84143382 661.7984022 1176.91034288 661.86333174 C1169.41745962 661.9055752 1161.92488791 661.91841095 1154.43189418 661.90801102 C1150.10667013 661.90287976 1145.78249803 661.91081902 1141.4574604 661.9536438 C1137.49724645 661.99257019 1133.53879175 661.99454942 1129.57849688 661.96719116 C1128.14631409 661.9638101 1126.71402165 661.97396887 1125.28205477 661.99906546 C1123.33387445 662.03122262 1121.38502552 662.00906086 1119.43673611 661.98438263 C1118.35491289 661.98742039 1117.27308967 661.99045815 1116.15848392 661.99358797 C1111.27459398 660.45722609 1109.03313967 656.9806537 1106 653 C1105.482812 652.32748751 1104.965624 651.65497501 1104.43276363 650.96208335 C1103.39455974 649.60260872 1102.35948092 648.24074278 1101.32727808 646.87670617 C1088.98783661 630.89351401 1076.01692674 616.99964668 1055.24441236 614.23949908 C1043.54977661 613.08441134 1031.79234464 613.10363951 1020.05393895 613.2791686 C1013.02782346 613.3768496 1006.00814726 613.26599924 998.98279757 613.15348225 C985.2241249 612.93993516 971.47079898 612.92401895 957.71097977 612.99791189 C945.66498129 613.06243274 933.62102909 613.06412427 921.57499695 613.00494003 C919.94953792 612.99718543 918.32407888 612.989435 916.69861981 612.9816887 C914.24817484 612.9699078 911.7977303 612.95805525 909.34728657 612.94601896 C886.61085481 612.83559321 863.87509885 612.79293292 841.13858795 612.8974781 C840.28432679 612.90140426 839.43006563 612.90533042 838.54991777 612.90937555 C831.61594902 612.94169271 824.6819902 612.97604611 817.74803191 613.01052338 C790.72506933 613.14343967 763.7096714 613.07211696 736.6875 612.83349609 C706.21580041 612.5649413 675.74855143 612.44022538 645.27565527 612.53073299 C642.01561413 612.539987 638.75557208 612.54882359 635.49552917 612.55743027 C634.6930297 612.55965859 633.89053022 612.56188691 633.06371257 612.56418276 C621.04137352 612.59488991 609.02295842 612.51751789 597.00141907 612.38382339 C583.29832566 612.23178658 569.60475551 612.23602511 555.90209967 612.43647887 C548.92796398 612.53459815 541.97010044 612.5689235 534.99678802 612.40312576 C509.67960555 611.86028358 488.54289393 612.30570403 469.47939359 630.42992321 C462.04002805 637.70199444 455.42561545 645.6831598 448.7875959 653.681983 C438.88330637 665.2260961 425.98192283 670.61535186 411.23112297 673.38988113 C410.10577648 673.6053194 410.10577648 673.6053194 408.95769572 673.82510996 C407.80107775 674.0450985 407.80107775 674.0450985 406.62109375 674.26953125 C404.97507842 674.6063885 403.32913564 674.94360042 401.68325996 675.28113937 C389.00382155 677.79300868 376.33669004 679.11279602 363.4375 679.8125 C362.48738918 679.86548264 361.53727837 679.91846528 360.55837631 679.97305346 C270.79667861 684.55697684 198.65990779 630.72232023 135.08468628 573.41946411 C129.17781213 568.05740849 123.3318751 562.6308729 117.5 557.1875 C116.77593171 556.51393312 116.05186342 555.84036623 115.30585366 555.14638823 C30.45279779 476.15478333 -12.25776279 399.18873695 -17.18117626 278.82710858 C-18.22064031 247.65284814 -17.49860655 216.52653197 -16.125 185.375 C-16.07447873 184.22695859 -16.02395745 183.07891718 -15.97190523 181.89608663 C-13.25151578 121.00488745 -7.84485655 60.43866845 0 0 Z M19 19 C11.37115642 76.52057424 6.2343163 134.15524322 3.625 192.125 C3.57674832 193.19390195 3.52849663 194.2628039 3.47878277 195.36409682 C-1.29306032 302.93702083 3.01850905 399.66662053 88.75412173 499.96307786 C100.47968306 512.64989094 112.83500746 524.68868348 125.28659543 536.65644883 C130.00624026 541.20505236 134.64394924 545.82631764 139.24103546 550.4985733 C198.50421613 610.68118126 254.52438621 650.03741154 341.47193424 650.89924144 C345.26507844 650.91992851 349.05788224 650.91653721 352.85105568 650.9056972 C355.64602291 650.90236526 358.44028911 650.91826846 361.23517179 650.93911099 C372.81124974 651.00656568 384.29173137 650.62440164 395.84044856 649.83937779 C398.24059549 649.69918281 400.63375987 649.62416889 403.03722239 649.56955409 C416.70728392 649.18091012 429.73911219 647.53123235 439.81535864 637.51028061 C444.13969304 632.89920349 448.29233339 628.13594771 452.44899766 623.37390729 C466.87979614 606.89230809 479.13473061 595.46701099 501.974997 593.73441734 C511.66634947 593.22231823 521.31974906 593.13542576 531.02021246 593.33828466 C538.20761561 593.47936558 545.38629275 593.36213671 552.57329062 593.24350254 C566.64381058 593.01938058 580.70584072 593.03572037 594.77713028 593.16089577 C607.09050944 593.26987042 619.40080533 593.29694103 631.71456909 593.24592209 C632.53718099 593.24263753 633.35979289 593.23935297 634.20733242 593.23596888 C637.54813251 593.22257728 640.88893114 593.20888563 644.22972795 593.19469904 C675.45304224 593.06369848 706.671003 593.18154095 737.89348875 593.41386561 C765.52202859 593.61788668 793.14204232 593.59962474 820.77050781 593.39404297 C851.94274597 593.16285709 883.11026922 593.07299518 914.28324604 593.20537031 C917.61730661 593.21915732 920.95136841 593.23260971 924.28543091 593.24592209 C925.10612249 593.24932242 925.92681407 593.25272274 926.7723751 593.25622611 C939.06634731 593.30476201 951.35686823 593.24866177 963.65036011 593.1393013 C977.65732014 593.01530516 991.65460293 593.04918299 1005.66038299 593.28037329 C1012.78809407 593.39420684 1019.90011498 593.44452168 1027.02762222 593.29545975 C1072.64550207 592.39875127 1072.64550207 592.39875127 1088.54098526 607.37219485 C1094.79180557 613.45423352 1100.52115512 619.97855691 1106.24943572 626.54770797 C1119.70254105 641.88073351 1119.70254105 641.88073351 1138.73698425 647.17094421 C1143.84397287 647.46174419 1148.87293606 647.29866616 1153.97455132 646.99082172 C1158.00520301 646.79871656 1162.03455028 646.86838148 1166.06851196 646.90061951 C1173.00187489 646.92279951 1179.91738391 646.79217223 1186.8462429 646.54639244 C1196.85988612 646.19142782 1206.86521722 646.08442789 1216.88446549 646.0309088 C1233.14862031 645.93760854 1249.40331506 645.65379083 1265.66235352 645.24389648 C1281.42230014 644.84700654 1297.17964507 644.54375339 1312.94360352 644.36206055 C1314.40970115 644.34511488 1314.40970115 644.34511488 1315.90541693 644.32782688 C1320.81049128 644.27169574 1325.71558356 644.21735979 1330.62068784 644.16391504 C1371.08702785 643.72069632 1411.54296435 642.96568047 1452 642 C1452.18304954 594.72863325 1452.32404604 547.45730396 1452.40852264 500.18565276 C1452.41852847 494.60675946 1452.42888303 489.02786686 1452.43945312 483.44897461 C1452.44155161 482.33830209 1452.44365009 481.22762957 1452.44581217 480.0833003 C1452.4806373 462.09157768 1452.54372188 444.10005923 1452.61722237 426.1084578 C1452.69199415 407.6519442 1452.73646168 389.19553764 1452.75270796 370.73887879 C1452.76369342 359.34697139 1452.79840811 347.95564106 1452.86333174 336.56391127 C1452.90556973 328.75565895 1452.91841216 320.94770562 1452.90801102 313.13934731 C1452.90287895 308.63186601 1452.91082884 304.12539408 1452.9536438 299.61809158 C1452.99255783 295.49136203 1452.99455684 291.36632095 1452.96719116 287.23951388 C1452.96380894 285.74676766 1452.97397756 284.25391637 1452.99906546 282.76137715 C1453.34592591 274.90442303 1453.34592591 274.90442303 1450.46421844 267.88097531 C1448.50344499 266.15369164 1448.50344499 266.15369164 1446.28859437 264.65241092 C1441.89093785 261.47721492 1438.6698568 257.02287207 1435.19462585 252.89503479 C1433.88105012 251.35332305 1432.56744117 249.81163916 1431.25275462 248.27087455 C1429.83645065 246.61032157 1428.42224283 244.94799783 1427.00804114 243.28565431 C1397.14469432 208.22440546 1366.23248909 174.11465034 1334.6875 140.5625 C1334.00883271 139.8401562 1333.33016542 139.11781239 1332.63093245 138.37357938 C1241.52036171 38.24327465 1241.52036171 38.24327465 1116.54301167 -0.12094212 C1106.08991432 -0.30279164 1095.68979369 0.19872478 1085.26313448 0.90109396 C1081.88288821 1.1244787 1078.50211662 1.31446721 1075.1194725 1.49760818 C1061.17262171 2.2903904 1047.39944254 3.68472428 1033.59923196 5.86172938 C1031.6852962 6.162358 1029.76967221 6.4524691 1027.85238242 6.73090672 C1026.94049981 6.86427143 1026.02861721 6.99763613 1025.08910179 7.13504219 C1024.29922351 7.24827391 1023.50934523 7.36150563 1022.69553125 7.47816861 C1005.45208613 10.55264253 991.35979554 14.97151791 979.9204731 28.84020424 C979.16831201 29.75130023 978.41615091 30.66239622 977.64119706 31.60110119 C976.87249037 32.5324331 976.10378367 33.46376501 975.31178284 34.4233191 C961.73570293 50.78549059 948.62294909 63.44683561 926.67055023 65.87189829 C915.75674317 66.68734466 904.85736141 66.7524072 893.92146537 66.53004861 C886.70646871 66.39233955 879.49978373 66.50671305 872.28517392 66.62262543 C858.16020582 66.84160877 844.04330333 66.8255427 829.91760293 66.7033111 C817.5565489 66.5968979 805.19842492 66.57041784 792.83700562 66.62026215 C792.01140716 66.62347032 791.1858087 66.62667849 790.33519211 66.62998389 C786.98231565 66.64306391 783.62944057 66.65643714 780.27656723 66.67029396 C748.93649111 66.79826554 717.60150257 66.6831166 686.26221375 66.45622429 C658.52657692 66.25694696 630.79904274 66.2747841 603.06347656 66.47558594 C571.77485851 66.70136405 540.49072164 66.78918399 509.20140171 66.65987086 C505.85526693 66.64640435 502.50913099 66.63326482 499.16299438 66.62026215 C498.33932258 66.6169409 497.51565077 66.61361965 496.66701921 66.61019775 C484.32505677 66.56277829 471.98637314 66.61761066 459.64486694 66.72440338 C445.58423421 66.84547875 431.53279961 66.81249702 417.47328925 66.58661214 C410.31761631 66.47538321 403.17686277 66.42637264 396.02138138 66.57187653 C350.05881405 67.4503897 350.05881405 67.4503897 333.08327675 51.45573616 C327.47503265 45.90988848 322.26601038 40.03985344 317.08995306 34.0929364 C304.77485298 19.52440351 304.77485298 19.52440351 287.16757202 13.9493103 C282.11937965 13.68964481 277.20204235 13.92018364 272.16162109 14.23193359 C269.35696942 14.26762321 266.55372869 14.23883603 263.74905396 14.21334839 C257.81226433 14.19173776 251.89544243 14.3186273 245.96369553 14.55933762 C237.39211942 14.90693768 228.82978063 15.01063406 220.25192662 15.06283326 C206.3270718 15.15384081 192.4127911 15.43067834 178.49365234 15.83154297 C165.0065457 16.21955111 151.52235276 16.51556672 138.03076172 16.69287109 C137.19348936 16.70390548 136.356217 16.71493987 135.49357276 16.72630863 C131.29148096 16.78113665 127.08936917 16.83420843 122.88724399 16.88640857 C88.25056334 17.31893206 53.62643919 18.0559942 19 19 Z " fill="#003535" transform="translate(225,227)"/>
<path d="M0 0 C35.46242563 -0.96679694 70.92213504 -1.70408834 106.39502092 -2.14474384 C110.60695593 -2.19725736 114.81886517 -2.25162045 119.03076172 -2.30712891 C119.86907928 -2.31814594 120.70739683 -2.32916298 121.57111795 -2.34051387 C135.04893996 -2.522023 148.51903986 -2.85239337 161.99231844 -3.24041744 C175.8753675 -3.63682965 189.75445097 -3.86720062 203.64292395 -3.95171678 C212.1803411 -4.00866147 220.69594843 -4.18631718 229.2266136 -4.53249161 C235.12172731 -4.75914346 241.00603667 -4.82066649 246.90516286 -4.76705785 C250.29917752 -4.74066425 253.62711791 -4.79685738 257.01875305 -5.00662994 C267.50863434 -5.62214432 278.03072718 -5.30665155 286.20288831 1.9583559 C291.25062828 7.08882965 295.90506034 12.58265203 300.62856217 18.00961541 C315.30047695 34.72249573 327.09657017 45.47450348 349.93373744 47.14589475 C359.657987 47.63998819 369.3458219 47.727956 379.07854472 47.53004492 C386.29353831 47.39234809 393.5002194 47.5067131 400.71482608 47.62262543 C414.83979418 47.84160877 428.95669667 47.8255427 443.08239707 47.7033111 C455.4434511 47.5968979 467.80157508 47.57041784 480.16299438 47.62026215 C480.98859284 47.62347032 481.8141913 47.62667849 482.66480789 47.62998389 C486.01768435 47.64306391 489.37055943 47.65643714 492.72343277 47.67029396 C524.06350889 47.79826554 555.39849743 47.6831166 586.73778625 47.45622429 C614.47342308 47.25694696 642.20095726 47.2747841 669.93652344 47.47558594 C701.22514149 47.70136405 732.50927836 47.78918399 763.79859829 47.65987086 C767.14473307 47.64640435 770.49086901 47.63326482 773.83700562 47.62026215 C774.66067742 47.6169409 775.48434923 47.61361965 776.33298079 47.61019775 C788.67494323 47.56277829 801.01362686 47.61761066 813.35513306 47.72440338 C827.41576579 47.84547875 841.46720039 47.81249702 855.52671075 47.58661214 C862.68238419 47.4753832 869.82313675 47.42638507 876.97861862 47.57187653 C902.31040939 48.05565885 924.02213952 48.15442481 943.20717788 29.84959264 C950.42084479 22.76450578 956.73893575 14.93158556 963.16275704 7.14163733 C974.07728696 -5.47370746 989.86442051 -9.64899442 1005.9064312 -12.0476284 C1006.81356574 -12.18574117 1007.72070028 -12.32385395 1008.65532374 -12.46615195 C1009.58375441 -12.60622806 1010.51218507 -12.74630416 1011.46875 -12.890625 C1013.42851515 -13.20856562 1015.38822637 -13.52683878 1017.34788704 -13.84542274 C1031.22847642 -16.02499334 1045.10144929 -17.25568918 1059.12430811 -18.05146265 C1062.50815845 -18.25047983 1065.88841098 -18.48366563 1069.26975632 -18.72117233 C1135.36592653 -23.08727801 1181.8490221 -4.97415062 1230.65930577 37.74578579 C1261.70678363 65.18116676 1290.68269688 94.78417923 1319.0625 124.9375 C1320.11462024 126.05459118 1320.11462024 126.05459118 1321.18799543 127.19424987 C1354.02181053 162.07175452 1386.09171447 197.6106851 1417.23111725 234.00997543 C1417.93675431 234.83404706 1417.93675431 234.83404706 1418.65664667 235.67476659 C1420.83689743 238.22151116 1423.01305054 240.77140611 1425.18217283 243.3276574 C1425.92690948 244.2004916 1426.67164612 245.0733258 1427.43895054 245.97260952 C1428.08325443 246.73167046 1428.72755832 247.4907314 1429.39138657 248.27279419 C1430.90214575 250.09679523 1430.90214575 250.09679523 1433 251 C1433 373.76 1433 496.52 1433 623 C1379.271875 623.886875 1325.54375 624.77375 1270.1875 625.6875 C1244.85391724 626.27470825 1244.85391724 626.27470825 1219.00854492 626.8737793 C1198.1920166 627.06799316 1198.1920166 627.06799316 1188.40962219 627.1040802 C1181.65227444 627.14376036 1174.91069312 627.29938271 1168.15779114 627.53974915 C1160.32597499 627.81809536 1152.50891709 627.93698217 1144.67214646 627.87813287 C1140.67429118 627.85269226 1136.70907863 627.88575301 1132.71762502 628.12625062 C1121.22483103 628.7851411 1108.85213256 628.83308884 1099.6447449 620.99501657 C1094.3526737 615.78830576 1089.52219393 610.15409076 1084.64554451 604.56158423 C1070.23806964 588.0793011 1058.05685463 576.45836226 1035.02357032 574.73158395 C1025.33246579 574.22675332 1015.67977453 574.13542559 1005.9797889 574.33828734 C998.79238504 574.47935885 991.6137079 574.36213672 984.42670938 574.24350254 C970.35618942 574.01938058 956.29415928 574.03572037 942.22286972 574.16089577 C929.90949056 574.26987042 917.59919467 574.29694103 905.28543091 574.24592209 C904.05151306 574.24099525 904.05151306 574.24099525 902.79266758 574.23596888 C899.45186749 574.22257728 896.11106886 574.20888563 892.77027205 574.19469904 C861.54695776 574.06369848 830.328997 574.18154095 799.10651125 574.41386561 C771.47797141 574.61788668 743.85795768 574.59962474 716.22949219 574.39404297 C685.05725403 574.16285709 653.88973078 574.07299518 622.71675396 574.20537031 C619.38269339 574.21915732 616.04863159 574.23260971 612.71456909 574.24592209 C611.89387751 574.24932242 611.07318593 574.25272274 610.2276249 574.25622611 C597.93365269 574.30476201 585.64313177 574.24866177 573.34963989 574.1393013 C559.34267986 574.01530516 545.34539707 574.04918299 531.33961701 574.28037329 C524.21190553 574.39420685 517.09988539 574.44451225 509.97237778 574.29545975 C475.79776671 573.37666136 475.79776671 573.37666136 447.0708828 589.67259693 C441.39695943 595.33586792 436.11736767 601.31691615 430.84771764 607.35403746 C417.94533555 622.04503272 408.26823351 629.03020201 388.62111282 630.40794945 C386.31400063 630.50520881 384.00836204 630.5702099 381.69981557 630.62266788 C379.23260259 630.69744554 376.77874622 630.84357201 374.31615591 631.01096654 C362.68594617 631.7987039 351.11228487 632.0053111 339.4579863 631.91840044 C336.64614603 631.90224078 333.83490496 631.90574335 331.02303743 631.91377902 C247.03397296 632.03194299 190.67259007 601.6250756 131.88308609 543.25004888 C127.32499789 538.69891446 122.80793249 534.10744306 118.29043537 529.51607789 C113.67182847 524.83606537 108.97748598 520.24278133 104.23699188 515.68648529 C24.03260654 438.51731067 -13.23816518 366.20065868 -16.76388387 247.55803327 C-17.21518302 222.72609914 -16.49474706 197.93034767 -15.375 173.125 C-15.326703 172.05201182 -15.27840599 170.97902364 -15.22864544 169.87352067 C-12.63110488 112.99588518 -7.48512814 56.43697694 0 0 Z M9 9 C2.57267271 64.06791603 -1.73589068 119.2017435 -4.11418962 174.59373719 C-4.20456848 176.69416146 -4.29612179 178.79453554 -4.38886213 180.89485687 C-8.88363985 282.73580974 -8.58628543 373.1639219 62.87541962 451.89574051 C78.45575285 468.87564257 95.26188532 484.48647786 112.59707093 499.64806676 C114.50497149 501.31684841 116.40978349 502.98910332 118.31428337 504.66176414 C149.03045372 531.59923664 180.84286568 556.94932771 214.41866183 580.2445727 C221.54101521 585.22936157 228.05990026 590.39331452 233.33320618 597.36741638 C241.86101629 607.78276431 249.41328078 615.15501459 263.15133953 616.82084751 C270.20250237 617.46090869 277.2483841 617.62870818 284.32519317 617.64672399 C286.88922884 617.66033547 289.45080198 617.70574191 292.01424599 617.76165581 C301.0392406 617.95831021 310.05717341 618.04434441 319.08422852 618.02172852 C327.37179457 618.00378383 335.62857052 618.2252198 343.90853804 618.56417185 C351.11864242 618.84827138 358.31902086 618.95636952 365.53463632 618.94055265 C370.51942528 618.93265602 375.46546052 619.03623412 380.44073617 619.35565865 C391.83971509 619.69445565 405.21953934 619.80454023 414.34576199 611.99186655 C418.45902151 607.71682597 422.15828697 603.10447356 425.92703199 598.52719605 C439.70318657 581.82563495 453.08154428 568.50151863 475.59684914 566.0041607 C486.61842892 565.18260271 497.62560972 565.11053239 508.66776095 565.33828701 C515.95282206 565.47931106 523.2292637 565.36215564 530.51392403 565.24350254 C544.77583464 565.01934321 559.02937075 565.03573703 573.29204109 565.16089577 C585.77292328 565.26985661 598.25076364 565.29694706 610.73202515 565.24592209 C611.56572782 565.24263753 612.39943049 565.23935297 613.25839689 565.23596888 C616.64421253 565.22257735 620.03002674 565.20888571 623.41583915 565.19469904 C655.06182446 565.06368956 686.70252816 565.18155592 718.34769611 565.41386561 C746.35213875 565.61788715 774.34816978 565.59962526 802.35253906 565.39404297 C833.94666122 565.16287303 865.53613155 565.0729868 897.1309824 565.20537031 C900.50997885 565.21915738 903.8889765 565.23260977 907.26797485 565.24592209 C908.09973164 565.24932242 908.93148843 565.25272274 909.78844997 565.25622611 C922.24985693 565.30476826 934.70785951 565.24864932 947.16879272 565.1393013 C961.36601317 565.01532405 975.55368553 565.04914685 989.74974132 565.28037329 C996.97459514 565.39422852 1004.1839651 565.44447509 1011.40861893 565.29545975 C1057.62743311 564.39941573 1057.62743311 564.39941573 1073.61966557 579.37219485 C1079.89490178 585.44390447 1085.63630167 591.96750135 1091.36725789 598.54770797 C1104.54254754 613.76646325 1104.54254754 613.76646325 1123.24345398 619.17094421 C1128.14985886 619.46095896 1132.97474164 619.29939603 1137.87549245 618.99082172 C1141.74657243 618.79840457 1145.61638263 618.86840024 1149.49092102 618.90061951 C1156.14795051 618.9227832 1162.78636403 618.79236658 1169.43869591 618.54639244 C1179.05237327 618.19115954 1188.65739989 618.084405 1198.27692399 618.0309088 C1213.89239913 617.93764582 1229.49801216 617.65394252 1245.1081543 617.24389648 C1260.2375476 616.84690144 1275.36422709 616.54370395 1290.49780273 616.36206055 C1291.43637022 616.35076344 1292.3749377 616.33946633 1293.34194662 616.32782688 C1298.05222738 616.27169506 1302.76252682 616.21735927 1307.47283876 616.16391504 C1346.32211911 615.72081425 1385.16039882 614.96591523 1424 614 C1424.52736712 568.65773578 1424.93218503 523.31579832 1425.17450258 477.97106754 C1425.20326607 472.60806672 1425.23303575 467.24507191 1425.26342773 461.88208008 C1425.26946087 460.81448251 1425.27549401 459.74688495 1425.28170998 458.64693595 C1425.38157478 441.39913848 1425.5627937 424.15311857 1425.77451431 406.90637284 C1425.99021389 389.18664837 1426.1174789 371.46784955 1426.16403538 353.74686629 C1426.19547287 342.82599158 1426.29443475 331.91014151 1426.48207874 320.99081547 C1426.604426 313.48518823 1426.64023689 305.9821267 1426.61053168 298.47557663 C1426.59590643 294.15344931 1426.61696704 289.84004021 1426.74172592 285.51949883 C1427.44692396 264.30433311 1427.44692396 264.30433311 1417.50650897 246.30003403 C1412.42750636 241.02352617 1406.78397767 236.48041696 1401 232 C1395.04960075 227.14908576 1390.09414348 221.86744706 1385.20378113 215.95802307 C1383.65425438 214.11189745 1382.10408925 212.26630751 1380.55338573 210.42117023 C1379.73282865 209.44140834 1378.91227156 208.46164645 1378.06684911 207.45219481 C1351.99702214 176.3625079 1324.89707833 146.19545298 1297.1875 116.5625 C1296.29188287 115.60406768 1296.29188287 115.60406768 1295.37817246 114.6262731 C1213.66063273 25.83220615 1213.66063273 25.83220615 1101.58741385 -8.08141643 C1090.35429332 -8.4368888 1079.18057784 -8.02440093 1067.96599627 -7.37227488 C1064.69649956 -7.18800721 1061.42692432 -7.03685805 1058.15539169 -6.8936882 C1044.63036758 -6.27153405 1031.26399653 -5.08380026 1017.85692596 -3.18847561 C1014.32080985 -2.69692681 1010.7783023 -2.26376387 1007.23348713 -1.8398242 C989.89194002 0.84973658 976.21238131 5.13700505 964.76574707 19.04286194 C949.40121708 37.67738499 935.67903289 54.24743036 910.20288831 56.81348008 C899.03669333 57.53452677 887.90227484 57.48375693 876.72778303 57.13820629 C869.35748598 56.91981056 861.99330014 56.96258205 854.62071944 57.00872011 C841.02834229 57.08690127 827.44473788 56.96870602 813.85448647 56.73158836 C800.43356938 56.49809224 787.01660725 56.35618557 773.59361839 56.33190346 C772.75367536 56.330334 771.91373232 56.32876454 771.04833646 56.32714753 C766.78127567 56.3196378 762.51421424 56.31371911 758.24715021 56.30841199 C728.15930971 56.26814366 698.07607238 56.02958806 667.99047852 55.67114258 C638.79493622 55.32376332 609.60090251 55.06824571 580.40356445 54.93481445 C579.50083408 54.93065288 578.59810371 54.92649131 577.66801788 54.92220364 C568.60098152 54.8805049 559.53393782 54.84064929 550.46688737 54.80214289 C532.00246301 54.72368534 513.5381058 54.63294017 495.07377625 54.53474426 C494.22514245 54.53024628 493.37650865 54.5257483 492.50215868 54.52111402 C435.9997136 54.22022989 379.49959039 53.63217138 323 53 C322.544836 52.05748493 322.544836 52.05748493 322.08047676 51.09592915 C320.99370659 48.98779192 319.90848113 47.66066867 318.23779297 45.99487305 C317.40584915 45.15831429 317.40584915 45.15831429 316.55709839 44.30485535 C315.9581778 43.71312027 315.3592572 43.12138519 314.7421875 42.51171875 C314.12030548 41.89029495 313.49842346 41.26887115 312.85769653 40.62861633 C311.54030786 39.31424584 310.22049249 38.00230375 308.8984375 36.69262695 C306.89793854 34.71023096 304.90540487 32.72010482 302.9140625 30.72851562 C294.50024176 22.31560426 294.50024176 22.31560426 285.61767578 14.40551758 C284 13 284 13 282.57197189 10.94221878 C278.4608685 7.83772831 274.24536748 8.46295287 269.23077393 8.51898193 C267.56568334 8.51385538 267.56568334 8.51385538 265.86695457 8.50862527 C262.13402508 8.50201794 258.40180895 8.52407062 254.66894531 8.54589844 C251.99842199 8.5470263 249.32794285 8.54657055 246.65742493 8.54412842 C240.90120256 8.54203026 235.14516145 8.55458798 229.38898468 8.57707977 C221.06653494 8.60957792 212.74417291 8.62000453 204.42166659 8.62503174 C190.91924496 8.63378784 177.41691995 8.66041192 163.91455078 8.69824219 C150.79769372 8.73495415 137.6808629 8.76326989 124.56396484 8.78027344 C123.75553994 8.78132433 122.94711503 8.78237523 122.1141924 8.78345796 C118.05859179 8.78867809 114.002991 8.79373293 109.94739008 8.79870558 C76.29818998 8.84017741 42.64910683 8.91063437 9 9 Z " fill="#00F2F8" transform="translate(244,246)"/>
<path d="M0 0 C8.20875 -0.0825 16.4175 -0.165 24.875 -0.25 C28.73227783 -0.30462402 28.73227783 -0.30462402 32.66748047 -0.36035156 C34.73404102 -0.37204758 36.80061087 -0.38223724 38.8671875 -0.390625 C39.91720947 -0.41108887 40.96723145 -0.43155273 42.04907227 -0.45263672 C51.99245258 -0.45728424 60.04496371 2.16812329 67.3046875 9.08984375 C71.95531176 14.32983284 73.69978622 19.40392208 73.38671875 26.41015625 C72.3266311 33.50953112 69.67061519 39.52319854 64 44 C63.34 44 62.68 44 62 44 C62 44.66 62 45.32 62 46 C62.680625 46.165 63.36125 46.33 64.0625 46.5 C69.08834188 49.06638734 73.20973991 53.62921972 75 59 C76.27710347 75.40165745 76.27710347 75.40165745 71.53515625 81.3984375 C71.02855469 81.92695312 70.52195312 82.45546875 70 83 C69.50371094 83.54914063 69.00742187 84.09828125 68.49609375 84.6640625 C61.48686322 91.52128563 52.29977805 93.4569999 42.78259277 93.45263672 C41.18284607 93.42194092 41.18284607 93.42194092 39.55078125 93.390625 C38.53963257 93.38659668 37.52848389 93.38256836 36.48669434 93.37841797 C32.76177444 93.35771853 29.03711617 93.30187584 25.3125 93.25 C16.959375 93.1675 8.60625 93.085 0 93 C0 62.31 0 31.62 0 0 Z " fill="#00F6FC" transform="translate(938,434)"/>
<path d="M0 0 C53.84482759 0 53.84482759 0 66.1875 8.625 C72.7157425 15.34083567 75.26529103 22.24924792 75.5 31.5625 C75.11173956 41.63683675 73.08915364 49.5862827 66 57 C61.22033898 61 61.22033898 61 58 61 C64.28695591 72.02735476 70.57441477 83.0526604 77 94 C68.79709504 95.50724755 60.00583294 96.88285453 52 94 C45.05103769 87.69717163 41.56566814 78.49392252 38 70 C37.34 68.68 36.68 67.36 36 66 C29.07 65.505 29.07 65.505 22 65 C22 74.57 22 84.14 22 94 C14.74 94 7.48 94 0 94 C0 62.98 0 31.96 0 0 Z " fill="#00F4FA" transform="translate(997,551)"/>
<path d="M0 0 C11.570625 -0.0928125 11.570625 -0.0928125 23.375 -0.1875 C26.99734619 -0.22846802 26.99734619 -0.22846802 30.69287109 -0.27026367 C32.63638816 -0.27903677 34.57991081 -0.28667875 36.5234375 -0.29296875 C37.50868408 -0.30831665 38.49393066 -0.32366455 39.5090332 -0.33947754 C49.72358027 -0.34328231 59.30586725 1.95317479 67 9 C73.85165747 18.0230607 76.02320805 26.78356745 75 38 C73.05474023 46.96916181 68.66451467 53.82416023 61.0625 59 C60.0415625 59.495 60.0415625 59.495 59 60 C59.57371578 64.41715332 61.22797266 67.36306234 63.59765625 71.10546875 C64.12823891 71.95338737 64.12823891 71.95338737 64.66954041 72.81843567 C65.7933949 74.61272916 66.92710671 76.40048969 68.0625 78.1875 C69.20032895 79.98587985 70.33587847 81.7855727 71.46617126 83.58869934 C72.48790158 85.21763123 73.51732827 86.84172806 74.54711914 88.46557617 C76 91 76 91 76 93 C67.75 93 59.5 93 51 93 C49.92878906 91.06253906 48.85757812 89.12507812 47.75390625 87.12890625 C46.71842549 85.25880684 45.68236174 83.38903158 44.64624023 81.51928711 C43.92492574 80.21689115 43.20422045 78.91415759 42.48413086 77.61108398 C41.45064658 75.74113893 40.41499737 73.87240788 39.37890625 72.00390625 C38.7557251 70.87799072 38.13254395 69.7520752 37.49047852 68.59204102 C36.23488288 66.148047 36.23488288 66.148047 35 65 C28.07 64.505 28.07 64.505 21 64 C21 73.57 21 83.14 21 93 C14.07 93 7.14 93 0 93 C0 62.31 0 31.62 0 0 Z " fill="#00F7FD" transform="translate(1107,434)"/>
<path d="M0 0 C0.80083008 0.00894287 1.60166016 0.01788574 2.42675781 0.02709961 C15.45662423 0.28360351 27.51433516 4.40639363 37.125 13.5625 C43.74754722 20.82633671 47.27005882 27.67678285 49.125 37.25 C45.56360935 37.48303424 42.00417554 37.62461781 38.4375 37.75 C36.92639648 37.85054687 36.92639648 37.85054687 35.38476562 37.953125 C32.43477191 38.03101262 29.98188575 38.00257175 27.125 37.25 C25.23896035 35.37329718 24.21377555 33.65936476 23.08959961 31.25708008 C20.86157064 26.62113319 16.62208483 24.2396125 12 22.4375 C4.44635835 20.24123108 -3.01553264 20.01619382 -10.25 23.3125 C-16.54701556 26.91079461 -21.14152867 31.85224409 -23.40234375 38.82421875 C-25.51677898 49.67598965 -23.79530765 58.71615391 -18.1875 68.0625 C-11.19763979 74.67452993 -4.8930885 75.96733385 4.51879883 75.84350586 C11.62192416 75.51176445 16.51238004 73.76150337 21.66015625 68.7578125 C23.67655545 66.48862856 25.05444457 64.4516291 26.05859375 61.58203125 C28.125 59.25 28.125 59.25 30.42675781 58.84912109 C33.4030817 58.75633775 36.33727618 58.81579481 39.3125 58.9375 C40.86614258 58.97133789 40.86614258 58.97133789 42.45117188 59.00585938 C45.01056404 59.06483154 47.56705951 59.14707433 50.125 59.25 C46.16864352 73.1686469 40.67688723 83.02477515 28.07421875 90.67578125 C15.17745098 97.55975133 0.39647224 99.67404966 -13.75 95.625 C-27.24338893 90.86557445 -36.45003852 83.02180794 -42.875 70.25 C-48.15419818 57.4731079 -48.71724866 43.30768174 -44.12890625 30.24609375 C-38.92219682 17.80514007 -31.07269897 9.24646658 -18.8671875 3.44140625 C-12.42788224 0.87745311 -6.85733719 -0.08596957 0 0 Z " fill="#00F5FB" transform="translate(835.875,549.75)"/>
<path d="M0 0 C9.01944066 7.3125744 12.70024152 16.00080506 16 27 C8.41 27 0.82 27 -7 27 C-7.99 24.69 -8.98 22.38 -10 20 C-14.82080916 13.95525484 -21.42155382 11.55683805 -28.890625 10.6484375 C-37.14122827 10.24648503 -43.61403895 12.09621649 -49.84765625 17.64453125 C-56.61445865 25.00987146 -57.51385036 31.50857212 -57.28125 41.3359375 C-56.71852233 48.66702855 -54.69553484 53.77082121 -49.98828125 59.39453125 C-44.18247622 64.0825192 -38.51009752 65.73184687 -31.125 65.625 C-29.94417847 65.61351929 -29.94417847 65.61351929 -28.73950195 65.60180664 C-21.98187355 65.3447646 -17.03389436 63.68602362 -12 59 C-9.23052111 55.93286684 -7.31876235 52.95628705 -6 49 C1.26 49 8.52 49 16 49 C14.24370064 61.29409552 8.76212861 70.28654345 -1 78 C-4.86422137 80.41131492 -8.78219455 82.29145047 -13 84 C-13.79921875 84.33902344 -14.5984375 84.67804688 -15.421875 85.02734375 C-27.62515066 89.47048271 -42.14122131 87.7655844 -53.8671875 82.78125 C-67.3738454 76.04662833 -74.34601418 65.56001901 -79.171875 51.61328125 C-80.13102904 47.42829309 -80.34454362 43.58986594 -80.3125 39.3125 C-80.30686035 38.52230469 -80.3012207 37.73210937 -80.29541016 36.91796875 C-80.06764828 25.8410745 -77.42141458 17.07855165 -71 8 C-70.55914063 7.36320312 -70.11828125 6.72640625 -69.6640625 6.0703125 C-53.43644058 -15.03497612 -20.04258592 -14.69553562 0 0 Z " fill="#00F5FB" transform="translate(816,442)"/>
<path d="M0 0 C6.41045719 4.31773758 10.44340089 10.26857914 13.08203125 17.46484375 C13.70703125 20.71484375 13.70703125 20.71484375 13.70703125 25.71484375 C6.77703125 25.71484375 -0.15296875 25.71484375 -7.29296875 25.71484375 C-7.95296875 23.40484375 -8.61296875 21.09484375 -9.29296875 18.71484375 C-11.87254469 15.42366066 -14.25247678 13.76888513 -18.29296875 12.71484375 C-24.31336611 12.14003194 -29.12295349 12.22508345 -34.29296875 15.71484375 C-36.6204622 19.20608392 -36.79596191 20.60706626 -36.29296875 24.71484375 C-31.96412196 31.11400857 -23.14218223 32.80839607 -16.10546875 34.52734375 C-5.04170809 37.30551177 6.42910329 41.58274483 12.70703125 51.71484375 C15.99805873 58.39798829 15.94503932 66.57525427 13.83203125 73.640625 C9.85089329 82.2707892 4.67673387 86.22505107 -4.10546875 89.58984375 C-16.45868086 93.6333362 -30.53432392 93.52202724 -42.29296875 87.71484375 C-49.20582417 83.74112754 -53.78461596 78.16146914 -57.66796875 71.27734375 C-58.29296875 68.71484375 -58.29296875 68.71484375 -58.29296875 59.71484375 C-51.36296875 59.71484375 -44.43296875 59.71484375 -37.29296875 59.71484375 C-36.30296875 62.68484375 -35.31296875 65.65484375 -34.29296875 68.71484375 C-31.42794616 71.80605234 -29.38558436 72.59529548 -25.22265625 73.05078125 C-19.32254159 73.22549991 -14.23571748 73.32171445 -9.29296875 69.71484375 C-6.96419513 66.83889539 -6.96419513 66.83889539 -7.35546875 63.27734375 C-8.01560933 59.71662649 -8.01560933 59.71662649 -10.16796875 57.52734375 C-16.44830496 53.88474875 -23.17851051 51.92236981 -30.23046875 50.33984375 C-40.23820898 47.90939255 -49.72473815 43.78405766 -55.29296875 34.71484375 C-58.32134396 27.3748835 -58.76729647 18.56983923 -56.453125 10.94921875 C-52.38295889 2.89111211 -45.08191071 -1.80341087 -36.67578125 -4.58984375 C-24.24091074 -7.14574092 -11.1651327 -6.2578001 0 0 Z " fill="#00F5FB" transform="translate(685.29296875,555.28515625)"/>
<path d="M0 0 C6.93 0 13.86 0 21 0 C21.01458252 1.74015381 21.02916504 3.48030762 21.04418945 5.27319336 C21.09604619 11.05283272 21.16138633 16.83223724 21.23571491 22.61162472 C21.28025108 26.1122344 21.31954269 29.61273219 21.34643555 33.11352539 C21.37766317 37.14758877 21.43244401 41.18104536 21.48828125 45.21484375 C21.49467117 46.45894516 21.5010611 47.70304657 21.50764465 48.98484802 C21.57185045 60.01919261 21.57185045 60.01919261 26.41596985 69.61412048 C30.90917127 73.54525513 34.82908111 74.36719738 40.5859375 74.2734375 C45.29250866 73.74033073 49.3428065 72.06430751 52.3515625 68.31640625 C55.39007804 63.23399716 56.11836536 58.94357332 56.20532227 53.12988281 C56.22526749 51.94896057 56.24521271 50.76803833 56.26576233 49.55133057 C56.28247482 48.28142273 56.29918732 47.01151489 56.31640625 45.703125 C56.33718735 44.39921814 56.35796844 43.09531128 56.37937927 41.75189209 C56.43445236 38.29304192 56.4839264 34.8341336 56.53222656 31.37518311 C56.58254972 27.84251762 56.63817922 24.30993611 56.69335938 20.77734375 C56.80076024 13.85163385 56.90175433 6.92584576 57 0 C63.93 0 70.86 0 78 0 C78.04531995 7.94563269 78.08195569 15.89116361 78.10362434 23.83689117 C78.11402813 27.52705212 78.12812451 31.21711947 78.15087891 34.90722656 C78.17272955 38.47339285 78.18459419 42.03946953 78.18975449 45.60569763 C78.19520723 47.61741087 78.21080038 49.62908844 78.22659302 51.64074707 C78.22807493 63.81180809 76.09020828 74.82682925 67.95703125 84.40625 C58.27766676 93.58879755 46.99155482 95.50241952 34.09375 95.28515625 C23.6970881 94.80623594 14.83053532 89.51261482 7.67578125 82.19921875 C2.31170618 75.1596517 -0.13067915 66.38500958 -0.11352539 57.67089844 C-0.11344986 56.38987244 -0.11337433 55.10884644 -0.11329651 53.78900146 C-0.10819026 52.39579225 -0.10297427 51.00258343 -0.09765625 49.609375 C-0.09579032 48.18019663 -0.09436724 46.75101762 -0.09336853 45.32183838 C-0.08955715 41.56699852 -0.07973867 37.81219757 -0.06866455 34.05737305 C-0.05842075 30.22314988 -0.05386455 26.38892041 -0.04882812 22.5546875 C-0.03811513 15.03643857 -0.02052953 7.5182297 0 0 Z " fill="#00F7FD" transform="translate(900,552)"/>
<path d="M0 0 C20.13 0 40.26 0 61 0 C61 5.94 61 11.88 61 18 C47.8 18 34.6 18 21 18 C21 24.27 21 30.54 21 37 C33.21 37 45.42 37 58 37 C58 42.94 58 48.88 58 55 C45.79 55 33.58 55 21 55 C21 61.6 21 68.2 21 75 C34.86 75 48.72 75 63 75 C63 80.94 63 86.88 63 93 C42.21 93 21.42 93 0 93 C0 62.31 0 31.62 0 0 Z " fill="#00F6FC" transform="translate(716,552)"/>
<path d="M0 0 C20.13 0 40.26 0 61 0 C61 5.61 61 11.22 61 17 C47.8 17 34.6 17 21 17 C21 23.6 21 30.2 21 37 C33.21 37 45.42 37 58 37 C58 42.94 58 48.88 58 55 C45.79 55 33.58 55 21 55 C21 61.6 21 68.2 21 75 C34.86 75 48.72 75 63 75 C63 80.94 63 86.88 63 93 C42.21 93 21.42 93 0 93 C0 62.31 0 31.62 0 0 Z " fill="#00F7FD" transform="translate(1028,434)"/>
<path d="M0 0 C7.92 0 15.84 0 24 0 C25.02480469 1.91683594 26.04960938 3.83367188 27.10546875 5.80859375 C28.11481818 7.69532325 29.12441435 9.58192052 30.1340332 11.46850586 C30.82764975 12.76491778 31.52101568 14.06146382 32.21411133 15.3581543 C36.08698791 22.60336962 39.97341756 29.8385641 44 37 C50.86908413 24.76718423 57.50391946 12.43535417 64 0 C71.92 0 79.84 0 88 0 C86.55982259 4.32053223 85.34347035 7.46818062 83.1640625 11.31640625 C82.59993652 12.31816895 82.03581055 13.31993164 81.45458984 14.35205078 C80.8508252 15.41149902 80.24706055 16.47094727 79.625 17.5625 C79.00447754 18.66062012 78.38395508 19.75874023 77.74462891 20.89013672 C75.83589041 24.26361925 73.91921184 27.63246654 72 31 C71.12504883 32.53744873 71.12504883 32.53744873 70.23242188 34.10595703 C67.27490206 39.30046534 64.30952245 44.49038868 61.33349609 49.67431641 C60.89344238 50.44179199 60.45338867 51.20926758 60 52 C59.30052246 53.07822021 58.60104492 54.15644043 57.88037109 55.26733398 C55.69446389 59.11025533 55.39819368 62.76224886 55.390625 67.12109375 C55.37408875 67.86585464 55.35755249 68.61061554 55.34051514 69.37794495 C55.29235387 71.73121647 55.27073706 74.08384349 55.25 76.4375 C55.22181337 78.04365167 55.19188221 79.64977372 55.16015625 81.25585938 C55.0833519 85.17086018 55.04254338 89.08388146 55 93 C48.07 93 41.14 93 34 93 C34.1134375 90.94265625 34.226875 88.8853125 34.34375 86.765625 C35.06398497 66.71118676 31.45924021 53.61842881 20.32444763 37.04667664 C16.21732303 30.9309358 12.72139556 24.52361783 9.1875 18.0625 C8.05839655 16.03121229 6.92707014 14.00115777 5.79296875 11.97265625 C5.3239917 11.12968994 4.85501465 10.28672363 4.37182617 9.41821289 C3.39418925 7.69486465 2.37371913 5.99552181 1.32543945 4.31420898 C0 2 0 2 0 0 Z " fill="#00F6FC" transform="translate(1209,552)"/>
<path d="M0 0 C7.92 0 15.84 0 24 0 C25.815 3.34125 27.63 6.6825 29.5 10.125 C34.22887811 18.81221969 39.0362117 27.44476487 44 36 C46.87973455 32.58751456 49.07677414 29.23338919 51.09375 25.25390625 C51.92712891 23.62678711 51.92712891 23.62678711 52.77734375 21.96679688 C53.34582031 20.84337891 53.91429687 19.71996094 54.5 18.5625 C56.16606927 15.28136358 57.83813323 12.00723231 59.56347656 8.75683594 C60.97866304 6.14233548 60.97866304 6.14233548 61.86621094 3.89160156 C62.640625 2.23828125 62.640625 2.23828125 65 0 C69.10926766 -0.71747248 73.09555487 -0.56296213 77.25 -0.375 C78.93996094 -0.33439453 78.93996094 -0.33439453 80.6640625 -0.29296875 C83.44464237 -0.22227604 86.22135359 -0.1236504 89 0 C85.1159354 8.00528376 80.92637442 15.73190749 76.375 23.375 C70.93859578 32.58646199 65.70924209 41.88757221 60.64404297 51.30810547 C60.17756348 52.1745166 59.71108398 53.04092773 59.23046875 53.93359375 C58.82207764 54.69728271 58.41368652 55.46097168 57.99291992 56.24780273 C57 58 57 58 56 59 C55.84011509 61.51880517 55.74065775 64.01342266 55.68359375 66.53515625 C55.66281265 67.28840683 55.64203156 68.04165741 55.62062073 68.81773376 C55.55504575 71.2325599 55.49620379 73.64749798 55.4375 76.0625 C55.3943223 77.69597529 55.35070827 79.3294391 55.30664062 80.96289062 C55.19853203 84.97514718 55.09951886 88.98748424 55 93 C48.07 93 41.14 93 34 93 C34.10183594 90.93105469 34.20367188 88.86210938 34.30859375 86.73046875 C34.94871112 66.29809553 31.48757649 53.40293377 19.99804688 36.06884766 C16.90845287 31.32346684 14.19080492 26.38268299 11.4375 21.4375 C8.10308855 15.57487503 4.67322563 9.78487558 1.12133789 4.05102539 C0 2 0 2 0 0 Z " fill="#00F7FD" transform="translate(838,434)"/>
<path d="M0 0 C26.73 0 53.46 0 81 0 C81 6.93 81 13.86 81 21 C71.1 21 61.2 21 51 21 C51 45.09 51 69.18 51 94 C44.07 94 37.14 94 30 94 C30 69.91 30 45.82 30 21 C20.1 21 10.2 21 0 21 C0 14.07 0 7.14 0 0 Z " fill="#00F3F9" transform="translate(1124,551)"/>
<path d="M0 0 C6.93 0 13.86 0 21 0 C21 30.69 21 61.38 21 93 C14.07 93 7.14 93 0 93 C0 62.31 0 31.62 0 0 Z " fill="#00F8FE" transform="translate(1090,552)"/>
<path d="M0 0 C5.506875 -0.12375 5.506875 -0.12375 11.125 -0.25 C12.2711377 -0.28641602 13.41727539 -0.32283203 14.59814453 -0.36035156 C20.75752166 -0.42731305 24.31657329 -0.1124653 29 4 C29.8971875 4.7734375 29.8971875 4.7734375 30.8125 5.5625 C33.62373698 8.96557634 33.28367131 12.81584814 33 17 C31.26005719 21.67037281 29.15827629 24.26162293 25 27 C21.96141764 27.98517165 19.19809643 28.11706156 16.015625 28.09765625 C15.17290039 28.09515869 14.33017578 28.09266113 13.46191406 28.09008789 C12.40198242 28.08098389 11.34205078 28.07187988 10.25 28.0625 C6.8675 28.041875 3.485 28.02125 0 28 C0 18.76 0 9.52 0 0 Z " fill="#003737" transform="translate(1018,570)"/>
<path d="M0 0 C3.50625 -0.061875 7.0125 -0.12375 10.625 -0.1875 C11.71893066 -0.21481201 12.81286133 -0.24212402 13.93994141 -0.27026367 C19.3804927 -0.31667454 23.33027453 -0.13592946 28 3 C31.59187732 6.96345084 32.3145589 10.6138998 32.20703125 15.94140625 C31.87405283 19.25234263 30.91169319 21.28662902 29 24 C22.95022712 28.48854117 17.92283904 28.49707562 10.5625 28.25 C7.076875 28.1675 3.59125 28.085 0 28 C0 18.76 0 9.52 0 0 Z " fill="#003434" transform="translate(1128,452)"/>
<path d="M0 0 C3.4269629 1.47952617 5.65589948 3.40537703 8.28721237 6.03553009 C9.14164169 6.88474391 9.99607101 7.73395774 10.87639213 8.60890532 C11.81976542 9.55660273 12.76304391 10.50439453 13.70623779 11.45227051 C14.71159331 12.45532207 15.71738447 13.45793714 16.72357392 14.46015215 C19.48964173 17.21785475 22.24941732 19.98178064 25.00820899 22.74675965 C27.98345257 25.72651953 30.96443398 28.70052954 33.94468689 31.67527771 C39.78245295 37.50413999 45.61478627 43.3384093 51.44520441 49.17462051 C56.18161908 53.91554693 60.91997613 58.65452375 65.65973663 63.3921051 C66.33360746 64.06566946 67.00747828 64.73923381 67.70176943 65.43320921 C69.07058981 66.80139016 70.43941469 68.16956662 71.80824402 69.53773862 C84.64957988 82.37336853 97.48477304 95.21512686 110.317884 108.05897933 C121.34012534 119.09016048 132.36760575 130.11608152 143.39892578 141.13818359 C156.19905959 153.92762646 168.99595826 166.72029196 181.78767323 179.51815557 C183.15028676 180.88140622 184.51290447 182.24465268 185.87552643 183.6078949 C186.88127469 184.61410599 186.88127469 184.61410599 187.90734111 185.64064458 C192.64293209 190.37796573 197.38084678 195.11295526 202.11965179 199.84706116 C207.889435 205.61124875 213.65566904 211.37895827 219.41731206 217.15128291 C222.35956495 220.09880973 225.30342689 223.04468201 228.25160789 225.98628044 C230.94626797 228.67501463 233.63632838 231.36826049 236.32267371 234.06530136 C237.29926348 235.04413947 238.27757226 236.0212659 239.25769266 236.99656874 C240.58175727 238.3146194 241.89916657 239.63934596 243.21615219 240.96446991 C243.95216022 241.70080265 244.68816825 242.43713538 245.44647956 243.19578123 C247 245 247 245 247 247 C242.30264571 245.56634291 239.42319382 242.83078357 236.0703125 239.3984375 C235.51689178 238.84314362 234.96347107 238.28784973 234.39328003 237.71572876 C233.22496676 236.54070897 232.06024897 235.36210465 230.89892578 234.18017578 C229.14462926 232.39497506 227.38013005 230.62042579 225.61328125 228.84765625 C224.47333865 227.69853107 223.33399683 226.54880954 222.1953125 225.3984375 C221.67840851 224.87728363 221.16150452 224.35612976 220.62893677 223.81918335 C217.93591798 221.07481565 215.35504528 218.27257051 212.85463619 215.35124016 C208.83402352 210.74366763 204.55808612 206.42790717 200.22377014 202.11697388 C199.36432672 201.25808717 198.50488331 200.39920046 197.61939615 199.51428688 C195.25408559 197.15147232 192.88655915 194.79091966 190.5180558 192.43130827 C187.95664627 189.87837891 185.39819691 187.32248602 182.8394165 184.766922 C178.41243222 180.34621635 173.98372846 175.92723954 169.55394173 171.50934219 C163.14831513 165.12072828 156.74643258 158.72837261 150.34563833 152.33491753 C139.95781483 141.95902109 129.56848426 131.58463536 119.17749023 121.21191406 C118.55641026 120.59192421 117.93533028 119.97193435 117.2954297 119.33315693 C108.46426613 110.51763314 99.63162374 101.70359248 90.79840397 92.89012907 C90.17520166 92.26832007 89.55199934 91.64651107 88.90991211 91.00585938 C88.2874691 90.38480989 87.66502609 89.76376041 87.02372117 89.12389125 C76.65993532 78.78310802 66.29998494 68.43849215 55.94319528 58.09070194 C49.55487851 51.70824704 43.16331305 45.32907961 36.76757842 38.95405786 C32.39302702 34.59317351 28.02205011 30.2287283 23.65392125 25.86141081 C21.1309104 23.33910654 18.60625355 20.81850622 16.07725334 18.30220604 C13.3419139 15.58053182 10.61424789 12.85125205 7.88734436 10.12112427 C7.078911 9.31919871 6.27047765 8.51727316 5.43754631 7.69104683 C4.71383353 6.96396865 3.99012075 6.23689047 3.24447727 5.48777962 C2.61337939 4.85798325 1.9822815 4.22818688 1.33205944 3.57930577 C0 2 0 2 0 0 Z " fill="#001C1D" transform="translate(1438,234)"/>
<path d="M0 0 C3.87542277 -0.0811135 7.74913882 -0.1405605 11.625 -0.1875 C13.26662109 -0.22520508 13.26662109 -0.22520508 14.94140625 -0.26367188 C25.18167669 -0.35676524 25.18167669 -0.35676524 30 3 C32.1979747 5.71083547 32.92397877 7.48957172 33.4375 10.9375 C32.87236169 14.89346816 31.56163859 16.95372709 29 20 C25.32651773 21.86361644 22.35135746 22.23905195 18.26171875 22.1953125 C16.66166992 22.18564453 16.66166992 22.18564453 15.02929688 22.17578125 C13.37510742 22.15064453 13.37510742 22.15064453 11.6875 22.125 C10.56537109 22.11597656 9.44324219 22.10695313 8.28710938 22.09765625 C5.52464783 22.07414594 2.7622964 22.03827662 0 22 C0 14.74 0 7.48 0 0 Z " fill="#003434" transform="translate(959,488)"/>
<path d="M0 0 C3.72960366 -0.08101311 7.45744359 -0.14051069 11.1875 -0.1875 C12.24259766 -0.21263672 13.29769531 -0.23777344 14.38476562 -0.26367188 C15.91713867 -0.27817383 15.91713867 -0.27817383 17.48046875 -0.29296875 C18.41785889 -0.3086792 19.35524902 -0.32438965 20.32104492 -0.34057617 C23.55787288 0.07092251 25.3796095 1.0816351 28 3 C30.48386059 6.72579089 30.3804212 8.58711402 30 13 C28.34860695 16.5386994 27.28394771 17.81070153 24 20 C21.45629883 20.22705078 21.45629883 20.22705078 18.45703125 20.1953125 C16.84731445 20.18564453 16.84731445 20.18564453 15.20507812 20.17578125 C13.52575195 20.15064453 13.52575195 20.15064453 11.8125 20.125 C10.68134766 20.11597656 9.55019531 20.10695313 8.38476562 20.09765625 C5.58975371 20.07406965 2.79485041 20.03819841 0 20 C0 13.4 0 6.8 0 0 Z " fill="#003333" transform="translate(959,451)"/>
<path d="M0 0 C3.24394395 2.09054166 4.93384184 3.41646409 6.8125 6.8125 C7.55745829 10.97591173 7.79945427 14.93653349 5.7890625 18.7578125 C3.09217242 22.14118369 0.83077452 23.56933439 -3.45703125 24.0859375 C-11.16986748 24.39397704 -11.16986748 24.39397704 -14.6875 21.5625 C-17.99390712 17.92545217 -19.01972901 16.32243888 -19.5625 11.4375 C-19.11265417 7.08899031 -17.98540424 5.13973747 -15.1875 1.8125 C-10.351192 -2.10883081 -5.73570796 -2.13683238 0 0 Z " fill="#003E3F" transform="translate(881.1875,212.1875)"/>
<path d="M0 0 C3.29006715 2.34100932 4.77930417 3.59250465 6.25 7.3125 C6.79700764 11.61041716 6.56502266 13.72745791 4.5 17.5625 C1.79861856 20.86418843 -0.06651529 23.03400998 -4.37109375 23.74609375 C-11.97276029 23.75663698 -11.97276029 23.75663698 -15.8125 21.5625 C-19.40649034 17.3888338 -20.25296564 13.99424176 -20.13671875 8.56640625 C-19.36270058 4.05520941 -16.4962157 1.59305818 -12.875 -1.0625 C-8.21730178 -2.43241124 -4.28521138 -2.23773195 0 0 Z " fill="#003F3F" transform="translate(983.75,212.6875)"/>
<path d="M0 0 C1.65 0 3.3 0 5 0 C6.86451757 1.99198062 8.30292791 3.76955072 9.8125 6 C10.21919922 6.57234375 10.62589844 7.1446875 11.04492188 7.734375 C12.04474232 9.14588621 13.02438622 10.57165041 14 12 C14.33 8.04 14.66 4.08 15 0 C16.98 0 18.96 0 21 0 C21 7.92 21 15.84 21 24 C16 24 16 24 13.83203125 21.91796875 C13.16558594 21.01691406 12.49914062 20.11585938 11.8125 19.1875 C11.13832031 18.29417969 10.46414063 17.40085938 9.76953125 16.48046875 C8.48186938 14.67546811 7.22989686 12.84484528 6 11 C5.67 15.29 5.34 19.58 5 24 C3.35 24 1.7 24 0 24 C0 16.08 0 8.16 0 0 Z " fill="#003C3C" transform="translate(993,212)"/>
<path d="M0 0 C1.98 0 3.96 0 6 0 C6 2.97 6 5.94 6 9 C8.97 9 11.94 9 15 9 C15 6.03 15 3.06 15 0 C16.98 0 18.96 0 21 0 C21 7.92 21 15.84 21 24 C19.02 24 17.04 24 15 24 C15 20.7 15 17.4 15 14 C12.03 14 9.06 14 6 14 C6 17.3 6 20.6 6 24 C4.02 24 2.04 24 0 24 C0 16.08 0 8.16 0 0 Z " fill="#004040" transform="translate(811,212)"/>
<path d="M0 0 C3.93085048 1.61998686 6.60196506 3.40294758 9 7 C9 7.99 9 8.98 9 10 C6.125 10.1875 6.125 10.1875 3 10 C2.34 9.01 1.68 8.02 1 7 C-0.901994 6.52441794 -0.901994 6.52441794 -3 6.625 C-4.051875 6.61339844 -4.051875 6.61339844 -5.125 6.6015625 C-7.41058594 6.859086 -7.41058594 6.859086 -9 10 C-9.32502803 13.12026907 -9.51151479 15.14747535 -7.875 17.875 C-5.11909116 19.52854531 -3.14924548 19.39365568 0 19 C0.495 18.505 0.99 18.01 1.5 17.5 C3 16 3 16 6.1875 15.8125 C7.115625 15.874375 8.04375 15.93625 9 16 C7.6396147 20.45217009 6.11130825 22.73458525 2 25 C-1.7756031 25.61318065 -5.22912178 25.66344775 -9 25 C-12.31876697 22.56172222 -14.72257934 19.94839113 -16 16 C-16.46931049 11.7762056 -16.28387834 9.54672865 -14.3125 5.75 C-10.04927767 0.68022209 -6.65304172 -0.80295331 0 0 Z " fill="#003F3F" transform="translate(799,211)"/>
<path d="M0 0 C2.875 1.1875 2.875 1.1875 5 3 C5.8125 5.6875 5.8125 5.6875 6 8 C4.35 8 2.7 8 1 8 C0.67 7.34 0.34 6.68 0 6 C-1.98 6 -3.96 6 -6 6 C-6.33 6.99 -6.66 7.98 -7 9 C-6.32453125 9.17015625 -5.6490625 9.3403125 -4.953125 9.515625 C4.45874587 12.07260726 4.45874587 12.07260726 7 16 C7.5625 18.5 7.5625 18.5 7 21 C4.79104689 23.72437551 3.06033714 24.83041458 -0.41796875 25.38671875 C-4.53980121 25.56328174 -7.139558 25.573628 -10.625 23.25 C-12 21 -12 21 -12 17 C-9.625 16.8125 -9.625 16.8125 -7 17 C-6.34 17.99 -5.68 18.98 -5 20 C-1.91634129 20.2502157 -1.91634129 20.2502157 1 20 C0.67 19.01 0.34 18.02 0 17 C-2.26044171 15.86321671 -2.26044171 15.86321671 -4.9375 15 C-9.78193146 13.3271028 -9.78193146 13.3271028 -12 10 C-12.4375 7.0625 -12.4375 7.0625 -12 4 C-8.38361793 -0.16431875 -5.36811037 -0.6710138 0 0 Z " fill="#003E3E" transform="translate(1029,211)"/>
<path d="M0 0 C1.98 0 3.96 0 6 0 C6.06058594 1.21558594 6.12117187 2.43117187 6.18359375 3.68359375 C6.26798332 5.26824228 6.3526321 6.85287702 6.4375 8.4375 C6.47681641 9.23994141 6.51613281 10.04238281 6.55664062 10.86914062 C6.4054296 14.75239561 6.4054296 14.75239561 8 18 C9.66617115 18.04063832 11.33388095 18.042721 13 18 C14.585869 14.828262 14.37866445 11.36486178 14.5625 7.875 C14.60568359 7.12089844 14.64886719 6.36679688 14.69335938 5.58984375 C14.7994832 3.72678112 14.90025001 1.86341476 15 0 C16.65 0 18.3 0 20 0 C20.13530844 3.06398451 20.2342407 6.12197126 20.3125 9.1875 C20.35439453 10.05181641 20.39628906 10.91613281 20.43945312 11.80664062 C20.52491771 16.26789186 20.46121926 18.35560146 17.796875 22.078125 C14.02502268 24.66995648 11.75235893 24.65432322 7.3125 24.4296875 C5 24 5 24 2.4375 22.1875 C0.39778385 19.08358412 -0.12495437 16.61893104 -0.09765625 12.98828125 C-0.09443359 12.23095703 -0.09121094 11.47363281 -0.08789062 10.69335938 C-0.07951172 9.90767578 -0.07113281 9.12199219 -0.0625 8.3125 C-0.05798828 7.51521484 -0.05347656 6.71792969 -0.04882812 5.89648438 C-0.0370585 3.93095743 -0.01912348 1.96546915 0 0 Z " fill="#003B3C" transform="translate(909,212)"/>
<path d="M0 0 C2.875 1.1875 2.875 1.1875 5 3 C5.8125 5.6875 5.8125 5.6875 6 8 C4.35 8 2.7 8 1 8 C0.67 7.34 0.34 6.68 0 6 C-1.98 6 -3.96 6 -6 6 C-6.33 6.99 -6.66 7.98 -7 9 C-6.32453125 9.17015625 -5.6490625 9.3403125 -4.953125 9.515625 C4.45874587 12.07260726 4.45874587 12.07260726 7 16 C7.5625 18.5 7.5625 18.5 7 21 C4.79104689 23.72437551 3.06033714 24.83041458 -0.41796875 25.38671875 C-4.53980121 25.56328174 -7.139558 25.573628 -10.625 23.25 C-12 21 -12 21 -12 17 C-9.625 16.8125 -9.625 16.8125 -7 17 C-6.34 17.99 -5.68 18.98 -5 20 C-1.91634129 20.2502157 -1.91634129 20.2502157 1 20 C0.67 19.01 0.34 18.02 0 17 C-2.26044171 15.86321671 -2.26044171 15.86321671 -4.9375 15 C-9.78193146 13.3271028 -9.78193146 13.3271028 -12 10 C-12.4375 7.0625 -12.4375 7.0625 -12 4 C-8.38361793 -0.16431875 -5.36811037 -0.6710138 0 0 Z " fill="#003E3E" transform="translate(854,211)"/>
<path d="M0 0 C5.28 0 10.56 0 16 0 C16 1.32 16 2.64 16 4 C12.37 4 8.74 4 5 4 C5 5.65 5 7.3 5 9 C8.3 9 11.6 9 15 9 C15 10.65 15 12.3 15 14 C12.03 14 9.06 14 6 14 C6 15.65 6 17.3 6 19 C9.63 19 13.26 19 17 19 C17 20.65 17 22.3 17 24 C11.39 24 5.78 24 0 24 C0 16.08 0 8.16 0 0 Z " fill="#003E3E" transform="translate(765,212)"/>
<path d="M0 0 C4.95 0 9.9 0 15 0 C15 1.65 15 3.3 15 5 C11.7 5 8.4 5 5 5 C5 6.98 5 8.96 5 11 C7.97 11 10.94 11 14 11 C14 12.65 14 14.3 14 16 C11.36 16 8.72 16 6 16 C6 18.64 6 21.28 6 24 C4.02 24 2.04 24 0 24 C0 16.08 0 8.16 0 0 Z " fill="#003C3D" transform="translate(703,212)"/>
<path d="M0 0 C2.6875 -0.5 2.6875 -0.5 6 0 C8.08132026 2.45240837 9.55490096 5.1353789 11 8 C11.43699219 7.13375 11.43699219 7.13375 11.8828125 6.25 C13.13049539 3.99004609 14.32799638 1.97011279 16 0 C19.3125 -0.5 19.3125 -0.5 22 0 C20.9251891 3.8106932 19.47762486 6.95160066 17.4375 10.3125 C14.76623458 14.93221784 14.25226845 18.70236263 14 24 C12.35 24 10.7 24 9 24 C9 22.80375 9 21.6075 9 20.375 C8.36335324 14.04895444 4.9595618 9.15235517 1.71484375 3.84375 C0 1 0 1 0 0 Z " fill="#003A3A" transform="translate(719,212)"/>
<path d="M0 0 C6.93 0 13.86 0 21 0 C21 1.65 21 3.3 21 5 C18.36 5 15.72 5 13 5 C13 11.27 13 17.54 13 24 C11.35 24 9.7 24 8 24 C8 17.73 8 11.46 8 5 C5.36 5 2.72 5 0 5 C0 3.35 0 1.7 0 0 Z " fill="#003637" transform="translate(932,212)"/>
<path d="M0 0 C6.93 0 13.86 0 21 0 C21 1.65 21 3.3 21 5 C18.36 5 15.72 5 13 5 C13 11.27 13 17.54 13 24 C11.35 24 9.7 24 8 24 C8 17.73 8 11.46 8 5 C5.36 5 2.72 5 0 5 C0 3.35 0 1.7 0 0 Z " fill="#003637" transform="translate(742,212)"/>
<path d="M0 0 C1.65 0 3.3 0 5 0 C5 6.27 5 12.54 5 19 C8.63 19 12.26 19 16 19 C16 20.65 16 22.3 16 24 C10.72 24 5.44 24 0 24 C0 16.08 0 8.16 0 0 Z " fill="#003333" transform="translate(891,212)"/>
<path d="M0 0 C1.875 0.30859375 1.875 0.30859375 3.875 1.30859375 C5.50541883 4.56943141 5.53464122 7.75097821 4.875 11.30859375 C2.68746717 14.00094185 1.29076045 14.24796202 -2.125 14.74609375 C-5.125 14.30859375 -5.125 14.30859375 -7.5 12.68359375 C-9.6003727 9.61381827 -9.65793835 7.96302814 -9.125 4.30859375 C-7.22735706 -0.19830824 -4.46860694 -0.27107358 0 0 Z " fill="#00F4FA" transform="translate(877.125,216.69140625)"/>
<path d="M0 0 C2.4375 1.625 2.4375 1.625 4 4 C4.60605429 7.63632575 4.47161336 9.28314769 2.4375 12.375 C-0.8994213 14.5996142 -3.06905293 14.50030235 -7 14 C-8.9375 13 -8.9375 13 -10 11 C-10.52960415 7.41957756 -10.65886567 4.24021772 -8.9375 1 C-5.82090489 -0.60856522 -3.43737531 -0.42213381 0 0 Z " fill="#00F4FA" transform="translate(980,217)"/>
<path d="M0 0 C1.98 0 3.96 0 6 0 C6 7.92 6 15.84 6 24 C4.02 24 2.04 24 0 24 C0 16.08 0 8.16 0 0 Z " fill="#004445" transform="translate(955,212)"/>
<path d="M0 0 C1.98 0 3.96 0 6 0 C6.33 0.99 6.66 1.98 7 3 C8.423125 2.690625 8.423125 2.690625 9.875 2.375 C10.90625 2.25125 11.9375 2.1275 13 2 C13.66 2.66 14.32 3.32 15 4 C14.625 7.625 14.625 7.625 14 11 C13.34 11 12.68 11 12 11 C11.57074219 10.55011719 11.14148438 10.10023438 10.69921875 9.63671875 C8.57938109 7.59485213 6.55735353 6.846276 3.8125 5.8125 C2.91144531 5.46832031 2.01039063 5.12414062 1.08203125 4.76953125 C0.39496094 4.51558594 -0.29210937 4.26164063 -1 4 C-0.67 2.68 -0.34 1.36 0 0 Z " fill="#00EAEF" transform="translate(848,216)"/>
</svg>
